<svg width="2257" height="2300" viewBox="0 0 2257 2300" fill="none" xmlns="http://www.w3.org/2000/svg">
<path d="M28.4111 2006V1766.39H132.129C153.58 1766.39 172.064 1769.93 187.582 1777C203.099 1783.85 215.08 1793.77 223.523 1806.78C231.967 1819.79 236.188 1835.31 236.188 1853.33C236.188 1871.13 231.967 1886.54 223.523 1899.54C215.08 1912.55 203.099 1922.59 187.582 1929.67C172.064 1936.51 153.58 1939.94 132.129 1939.94H59.2183L83.864 1914.95V2006H28.4111ZM83.864 1921.11L59.2183 1894.75H129.048C146.163 1894.75 158.942 1891.1 167.386 1883.8C175.829 1876.5 180.051 1866.34 180.051 1853.33C180.051 1840.1 175.829 1829.83 167.386 1822.53C158.942 1815.22 146.163 1811.57 129.048 1811.57H59.2183L83.864 1785.22V1921.11ZM278.463 2006L385.261 1766.39H440.029L547.17 2006H488.979L401.349 1794.46H423.257L335.285 2006H278.463ZM331.862 1954.65L346.581 1912.55H469.81L484.871 1954.65H331.862ZM618.24 2006V1766.39H721.958C743.409 1766.39 761.893 1769.93 777.411 1777C792.929 1783.85 804.909 1793.77 813.353 1806.78C821.796 1819.79 826.018 1835.31 826.018 1853.33C826.018 1871.13 821.796 1886.54 813.353 1899.54C804.909 1912.32 792.929 1922.14 777.411 1928.98C761.893 1935.83 743.409 1939.25 721.958 1939.25H649.048L673.693 1914.95V2006H618.24ZM770.565 2006L710.662 1919.06H769.88L830.468 2006H770.565ZM673.693 1921.11L649.048 1895.09H718.877C735.992 1895.09 748.772 1891.44 757.215 1884.14C765.658 1876.61 769.88 1866.34 769.88 1853.33C769.88 1840.1 765.658 1829.83 757.215 1822.53C748.772 1815.22 735.992 1811.57 718.877 1811.57H649.048L673.693 1785.22V1921.11ZM962.455 2006V1811.57H885.779V1766.39H1094.58V1811.57H1017.91V2006H962.455ZM1170.63 2006V1766.39H1216.5L1357.87 1938.91H1335.62V1766.39H1390.39V2006H1344.86L1203.15 1833.48H1225.4V2006H1170.63ZM1544.29 1862.92H1659.65V1906.05H1544.29V1862.92ZM1548.4 1961.5H1678.82V2006H1493.29V1766.39H1674.37V1810.89H1548.4V1961.5ZM1769.15 2006V1766.39H1872.87C1894.32 1766.39 1912.8 1769.93 1928.32 1777C1943.84 1783.85 1955.82 1793.77 1964.26 1806.78C1972.71 1819.79 1976.93 1835.31 1976.93 1853.33C1976.93 1871.13 1972.71 1886.54 1964.26 1899.54C1955.82 1912.32 1943.84 1922.14 1928.32 1928.98C1912.8 1935.83 1894.32 1939.25 1872.87 1939.25H1799.96L1824.6 1914.95V2006H1769.15ZM1921.48 2006L1861.57 1919.06H1920.79L1981.38 2006H1921.48ZM1824.6 1921.11L1799.96 1895.09H1869.79C1886.9 1895.09 1899.68 1891.44 1908.13 1884.14C1916.57 1876.61 1920.79 1866.34 1920.79 1853.33C1920.79 1840.1 1916.57 1829.83 1908.13 1822.53C1899.68 1815.22 1886.9 1811.57 1869.79 1811.57H1799.96L1824.6 1785.22V1921.11ZM2145.8 2010.11C2126.63 2010.11 2108.26 2007.6 2090.69 2002.58C2073.12 1997.33 2058.97 1990.6 2048.25 1982.38L2067.07 1940.62C2077.34 1947.92 2089.44 1953.97 2103.36 1958.76C2117.51 1963.33 2131.77 1965.61 2146.15 1965.61C2157.1 1965.61 2165.89 1964.58 2172.5 1962.53C2179.35 1960.25 2184.37 1957.16 2187.56 1953.29C2190.76 1949.41 2192.36 1944.96 2192.36 1939.94C2192.36 1933.55 2189.85 1928.53 2184.83 1924.87C2179.81 1920.99 2173.19 1917.91 2164.97 1915.63C2156.76 1913.12 2147.63 1910.84 2137.59 1908.79C2127.78 1906.5 2117.85 1903.77 2107.81 1900.57C2098 1897.38 2088.98 1893.27 2080.77 1888.25C2072.55 1883.23 2065.82 1876.61 2060.57 1868.39C2055.55 1860.18 2053.04 1849.68 2053.04 1836.9C2053.04 1823.21 2056.69 1810.77 2063.99 1799.59C2071.52 1788.18 2082.71 1779.17 2097.54 1772.55C2112.6 1765.7 2131.43 1762.28 2154.02 1762.28C2169.08 1762.28 2183.91 1764.11 2198.52 1767.76C2213.12 1771.18 2226.02 1776.43 2237.2 1783.5L2220.08 1825.61C2208.9 1819.22 2197.72 1814.54 2186.54 1811.57C2175.36 1808.38 2164.4 1806.78 2153.68 1806.78C2142.95 1806.78 2134.17 1808.04 2127.32 1810.55C2120.47 1813.06 2115.57 1816.36 2112.6 1820.47C2109.63 1824.35 2108.15 1828.92 2108.15 1834.16C2108.15 1840.33 2110.66 1845.35 2115.68 1849.23C2120.7 1852.88 2127.32 1855.84 2135.53 1858.13C2143.75 1860.41 2152.76 1862.69 2162.58 1864.97C2172.62 1867.25 2182.54 1869.88 2192.36 1872.84C2202.4 1875.81 2211.53 1879.8 2219.74 1884.83C2227.96 1889.85 2234.57 1896.46 2239.59 1904.68C2244.84 1912.89 2247.47 1923.28 2247.47 1935.83C2247.47 1949.29 2243.7 1961.61 2236.17 1972.8C2228.64 1983.98 2217.34 1992.99 2202.28 1999.84C2187.45 2006.68 2168.62 2010.11 2145.8 2010.11Z" fill="white"/>
<path d="M482.264 2266.55L524.564 2174.02H534.214L576.514 2266.55H566.203L527.34 2179.7H531.306L492.443 2266.55H482.264ZM498.92 2241.83L501.828 2233.9H555.628L558.536 2241.83H498.92ZM605.039 2266.55V2174.02H613.103L676.949 2254.39H672.719V2174.02H682.369V2266.55H674.305L610.591 2186.18H614.821V2266.55H605.039ZM725.789 2266.55V2174.02H763.462C773.332 2174.02 781.968 2176 789.371 2179.97C796.861 2183.84 802.678 2189.26 806.819 2196.22C810.961 2203.19 813.032 2211.21 813.032 2220.28C813.032 2229.36 810.961 2237.38 806.819 2244.34C802.678 2251.3 796.861 2256.77 789.371 2260.73C781.968 2264.61 773.332 2266.55 763.462 2266.55H725.789ZM735.571 2258.09H762.933C771.129 2258.09 778.223 2256.5 784.215 2253.33C790.296 2250.07 795.011 2245.62 798.359 2239.98C801.708 2234.25 803.383 2227.69 803.383 2220.28C803.383 2212.79 801.708 2206.23 798.359 2200.59C795.011 2194.95 790.296 2190.54 784.215 2187.37C778.223 2184.11 771.129 2182.48 762.933 2182.48H735.571V2258.09ZM921.543 2267.34C914.67 2267.34 908.06 2266.24 901.715 2264.04C895.458 2261.75 890.611 2258.84 887.175 2255.31L891.008 2247.78C894.269 2250.95 898.631 2253.64 904.095 2255.84C909.646 2257.96 915.463 2259.01 921.543 2259.01C927.359 2259.01 932.074 2258.31 935.687 2256.9C939.388 2255.4 942.076 2253.42 943.751 2250.95C945.513 2248.48 946.394 2245.75 946.394 2242.75C946.394 2239.14 945.337 2236.23 943.222 2234.03C941.195 2231.83 938.507 2230.11 935.159 2228.87C931.81 2227.55 928.109 2226.41 924.055 2225.44C920.001 2224.47 915.947 2223.46 911.894 2222.4C907.84 2221.25 904.095 2219.75 900.658 2217.9C897.309 2216.05 894.577 2213.63 892.462 2210.63C890.435 2207.55 889.422 2203.54 889.422 2198.6C889.422 2194.02 890.611 2189.84 892.991 2186.05C895.458 2182.17 899.204 2179.08 904.227 2176.79C909.25 2174.41 915.683 2173.22 923.526 2173.22C928.725 2173.22 933.881 2173.97 938.992 2175.47C944.103 2176.88 948.509 2178.86 952.211 2181.42L948.906 2189.22C944.94 2186.57 940.71 2184.64 936.216 2183.4C931.81 2182.17 927.536 2181.55 923.394 2181.55C917.842 2181.55 913.26 2182.3 909.646 2183.8C906.033 2185.3 903.346 2187.32 901.583 2189.88C899.909 2192.35 899.071 2195.17 899.071 2198.34C899.071 2201.95 900.085 2204.86 902.112 2207.06C904.227 2209.27 906.959 2210.99 910.307 2212.22C913.744 2213.45 917.49 2214.55 921.543 2215.52C925.597 2216.49 929.607 2217.55 933.572 2218.7C937.626 2219.84 941.327 2221.34 944.676 2223.19C948.113 2224.95 950.845 2227.33 952.872 2230.33C954.987 2233.33 956.044 2237.25 956.044 2242.09C956.044 2246.59 954.81 2250.77 952.343 2254.65C949.875 2258.44 946.086 2261.52 940.975 2263.9C935.952 2266.2 929.474 2267.34 921.543 2267.34ZM1031.03 2267.34C1024.06 2267.34 1017.59 2266.2 1011.59 2263.9C1005.69 2261.52 1000.53 2258.22 996.128 2253.99C991.81 2249.67 988.417 2244.69 985.949 2239.05C983.57 2233.33 982.38 2227.07 982.38 2220.28C982.38 2213.5 983.57 2207.28 985.949 2201.64C988.417 2195.92 991.81 2190.94 996.128 2186.71C1000.53 2182.39 1005.69 2179.08 1011.59 2176.79C1017.5 2174.41 1023.98 2173.22 1031.03 2173.22C1037.99 2173.22 1044.42 2174.41 1050.32 2176.79C1056.23 2179.08 1061.34 2182.35 1065.66 2186.57C1070.06 2190.8 1073.46 2195.78 1075.84 2201.51C1078.3 2207.24 1079.54 2213.5 1079.54 2220.28C1079.54 2227.07 1078.3 2233.33 1075.84 2239.05C1073.46 2244.78 1070.06 2249.76 1065.66 2253.99C1061.34 2258.22 1056.23 2261.52 1050.32 2263.9C1044.42 2266.2 1037.99 2267.34 1031.03 2267.34ZM1031.03 2258.62C1036.58 2258.62 1041.69 2257.69 1046.36 2255.84C1051.12 2253.9 1055.22 2251.21 1058.65 2247.78C1062.18 2244.25 1064.91 2240.2 1066.85 2235.62C1068.79 2230.95 1069.76 2225.83 1069.76 2220.28C1069.76 2214.73 1068.79 2209.66 1066.85 2205.08C1064.91 2200.41 1062.18 2196.36 1058.65 2192.92C1055.22 2189.39 1051.12 2186.71 1046.36 2184.86C1041.69 2182.92 1036.58 2181.95 1031.03 2181.95C1025.47 2181.95 1020.32 2182.92 1015.56 2184.86C1010.8 2186.71 1006.66 2189.39 1003.13 2192.92C999.697 2196.36 996.965 2200.41 994.938 2205.08C992.999 2209.66 992.03 2214.73 992.03 2220.28C992.03 2225.75 992.999 2230.81 994.938 2235.48C996.965 2240.15 999.697 2244.25 1003.13 2247.78C1006.66 2251.21 1010.8 2253.9 1015.56 2255.84C1020.32 2257.69 1025.47 2258.62 1031.03 2258.62ZM1114.68 2266.55V2174.02H1124.46V2258.09H1176.28V2266.55H1114.68ZM1241.34 2267.34C1229.53 2267.34 1220.23 2263.95 1213.45 2257.16C1206.66 2250.38 1203.27 2240.33 1203.27 2227.02V2174.02H1213.05V2226.63C1213.05 2237.56 1215.52 2245.62 1220.45 2250.82C1225.39 2256.02 1232.35 2258.62 1241.34 2258.62C1250.42 2258.62 1257.42 2256.02 1262.36 2250.82C1267.29 2245.62 1269.76 2237.56 1269.76 2226.63V2174.02H1279.28V2227.02C1279.28 2240.33 1275.88 2250.38 1269.1 2257.16C1262.4 2263.95 1253.15 2267.34 1241.34 2267.34ZM1338.14 2266.55V2182.48H1305.62V2174.02H1380.44V2182.48H1347.92V2266.55H1338.14ZM1409.29 2266.55V2174.02H1419.07V2266.55H1409.29ZM1502.84 2267.34C1495.88 2267.34 1489.41 2266.2 1483.41 2263.9C1477.51 2261.52 1472.35 2258.22 1467.95 2253.99C1463.63 2249.67 1460.24 2244.69 1457.77 2239.05C1455.39 2233.33 1454.2 2227.07 1454.2 2220.28C1454.2 2213.5 1455.39 2207.28 1457.77 2201.64C1460.24 2195.92 1463.63 2190.94 1467.95 2186.71C1472.35 2182.39 1477.51 2179.08 1483.41 2176.79C1489.32 2174.41 1495.79 2173.22 1502.84 2173.22C1509.81 2173.22 1516.24 2174.41 1522.14 2176.79C1528.05 2179.08 1533.16 2182.35 1537.48 2186.57C1541.88 2190.8 1545.28 2195.78 1547.66 2201.51C1550.12 2207.24 1551.36 2213.5 1551.36 2220.28C1551.36 2227.07 1550.12 2233.33 1547.66 2239.05C1545.28 2244.78 1541.88 2249.76 1537.48 2253.99C1533.16 2258.22 1528.05 2261.52 1522.14 2263.9C1516.24 2266.2 1509.81 2267.34 1502.84 2267.34ZM1502.84 2258.62C1508.4 2258.62 1513.51 2257.69 1518.18 2255.84C1522.94 2253.9 1527.03 2251.21 1530.47 2247.78C1534 2244.25 1536.73 2240.2 1538.67 2235.62C1540.61 2230.95 1541.58 2225.83 1541.58 2220.28C1541.58 2214.73 1540.61 2209.66 1538.67 2205.08C1536.73 2200.41 1534 2196.36 1530.47 2192.92C1527.03 2189.39 1522.94 2186.71 1518.18 2184.86C1513.51 2182.92 1508.4 2181.95 1502.84 2181.95C1497.29 2181.95 1492.14 2182.92 1487.38 2184.86C1482.62 2186.71 1478.48 2189.39 1474.95 2192.92C1471.52 2196.36 1468.78 2200.41 1466.76 2205.08C1464.82 2209.66 1463.85 2214.73 1463.85 2220.28C1463.85 2225.75 1464.82 2230.81 1466.76 2235.48C1468.78 2240.15 1471.52 2244.25 1474.95 2247.78C1478.48 2251.21 1482.62 2253.9 1487.38 2255.84C1492.14 2257.69 1497.29 2258.62 1502.84 2258.62ZM1586.5 2266.55V2174.02H1594.56L1658.41 2254.39H1654.18V2174.02H1663.83V2266.55H1655.77L1592.05 2186.18H1596.28V2266.55H1586.5ZM1732.76 2267.34C1725.89 2267.34 1719.28 2266.24 1712.94 2264.04C1706.68 2261.75 1701.83 2258.84 1698.39 2255.31L1702.23 2247.78C1705.49 2250.95 1709.85 2253.64 1715.31 2255.84C1720.87 2257.96 1726.68 2259.01 1732.76 2259.01C1738.58 2259.01 1743.29 2258.31 1746.91 2256.9C1750.61 2255.4 1753.3 2253.42 1754.97 2250.95C1756.73 2248.48 1757.61 2245.75 1757.61 2242.75C1757.61 2239.14 1756.56 2236.23 1754.44 2234.03C1752.41 2231.83 1749.73 2230.11 1746.38 2228.87C1743.03 2227.55 1739.33 2226.41 1735.27 2225.44C1731.22 2224.47 1727.17 2223.46 1723.11 2222.4C1719.06 2221.25 1715.31 2219.75 1711.88 2217.9C1708.53 2216.05 1705.8 2213.63 1703.68 2210.63C1701.66 2207.55 1700.64 2203.54 1700.64 2198.6C1700.64 2194.02 1701.83 2189.84 1704.21 2186.05C1706.68 2182.17 1710.42 2179.08 1715.45 2176.79C1720.47 2174.41 1726.9 2173.22 1734.75 2173.22C1739.95 2173.22 1745.1 2173.97 1750.21 2175.47C1755.32 2176.88 1759.73 2178.86 1763.43 2181.42L1760.13 2189.22C1756.16 2186.57 1751.93 2184.64 1747.44 2183.4C1743.03 2182.17 1738.76 2181.55 1734.61 2181.55C1729.06 2181.55 1724.48 2182.3 1720.87 2183.8C1717.25 2185.3 1714.57 2187.32 1712.8 2189.88C1711.13 2192.35 1710.29 2195.17 1710.29 2198.34C1710.29 2201.95 1711.3 2204.86 1713.33 2207.06C1715.45 2209.27 1718.18 2210.99 1721.53 2212.22C1724.96 2213.45 1728.71 2214.55 1732.76 2215.52C1736.82 2216.49 1740.83 2217.55 1744.79 2218.7C1748.85 2219.84 1752.55 2221.34 1755.9 2223.19C1759.33 2224.95 1762.06 2227.33 1764.09 2230.33C1766.21 2233.33 1767.26 2237.25 1767.26 2242.09C1767.26 2246.59 1766.03 2250.77 1763.56 2254.65C1761.1 2258.44 1757.31 2261.52 1752.19 2263.9C1747.17 2266.2 1740.69 2267.34 1732.76 2267.34Z" fill="white"/>
<path d="M1117.33 1118.67C1108.92 1095.28 1121.8 1069.63 1145.57 1062.39V1062.39C1167.36 1055.76 1190.56 1067.07 1198.77 1088.31L1210.75 1119.36C1219.78 1142.73 1207.43 1168.89 1183.65 1176.78V1176.78C1161.06 1184.27 1136.63 1172.38 1128.58 1149.99L1117.33 1118.67Z" fill="#AEE637"/>
<path d="M1216.17 1068.15C1197.89 1038.88 1211.27 1000.21 1243.73 988.498V988.498C1269.9 979.062 1298.96 990.975 1310.97 1016.06L1341.61 1080.07C1353.5 1104.9 1343.17 1134.67 1318.46 1146.81V1146.81C1295.35 1158.16 1267.4 1150.18 1253.76 1128.34L1216.17 1068.15Z" fill="#AEE637"/>
<path d="M1341.59 1047.47C1320.93 1023.7 1326.27 987.119 1352.87 970.244V970.244C1376.51 955.239 1407.81 961.886 1423.32 985.205L1450.72 1026.41C1464.68 1047.41 1460.13 1075.63 1440.27 1091.18V1091.18C1420.03 1107.03 1390.91 1104.24 1374.05 1084.83L1341.59 1047.47Z" fill="#AEE637"/>
<path d="M1450.91 999.116C1433.2 976.504 1437.48 943.769 1460.41 926.471V926.471C1484.26 908.474 1518.37 914.558 1534.53 939.689L1548.09 960.783C1560.84 980.602 1558.76 1006.5 1543.02 1024.03L1542.51 1024.59C1538.74 1028.79 1534.26 1032.3 1529.27 1034.94V1034.94C1508.7 1045.86 1483.27 1040.45 1468.91 1022.12L1450.91 999.116Z" fill="#AEE637"/>
<path d="M670.562 317.015C1133.14 -95.7512 1588.81 162.821 1758.82 343.702C1592.76 104.108 1391.83 19.6882 1266.58 5.66102C979.543 -22.8056 785.219 62.9896 723.937 109.446C446.387 296.851 377 565.109 377 675.813L551.951 782.563C703.773 678.185 797.08 519.642 824.756 453.417L670.562 317.015Z" fill="#AEE637"/>
<path d="M597.149 735.621C665.944 690.549 762.642 558.615 801.19 490.414C888.962 514.136 1009.59 481.09 1044.19 456.379C1129.59 420.796 1225.07 450.449 1225.07 450.449C1225.07 450.449 1306.12 475.159 1319.96 483.067C1357.83 504.707 1377.52 596.014 1400.78 671.187C1375.73 757.099 1268.34 703.404 1268.34 703.404C1250.44 694.455 1209.27 587.065 1209.27 587.065C1175.27 560.218 1109.07 568.846 1080.4 581.696C1021.1 595.929 945.152 647.518 908.58 680.136L727.807 828.692L597.149 735.621Z" fill="#AEE637"/>
<path d="M1127.21 1428.99C809.336 1469.32 559.858 1283.69 474.854 1185.84C527.042 1294.96 660.677 1393.41 720.971 1428.99C872.793 1514.39 1029.36 1537.72 1088.67 1538.71C1221.51 1548.2 1357.52 1505.1 1408.91 1482.37C1503.8 1446.78 1608.58 1362.77 1649.1 1325.21C1705.44 1268.87 1752.89 1245.72 1826.76 1082.85C1857.16 1015.84 1863.79 959.491 1869.72 936.757C1898.19 811.03 1865.57 642.207 1850.74 577.959C1836.73 517.262 1816.15 469.232 1803.3 450.452L1527.53 577.959C1533.46 625.404 1607.59 824.077 1634.28 883.382C1655.63 930.827 1676.78 950.595 1684.69 954.549L1752.89 936.757C1736.28 1010.3 1655.03 1121.59 1616.48 1168.05C1478.9 1353.08 1232.98 1419.11 1127.21 1428.99Z" fill="#47C9F2"/>
<path d="M1390.04 610.576L1538.6 594.225C1556.39 648.589 1615.78 780.88 1651.36 866.279C1695.84 973.029 1577.93 954.548 1574.97 951.583L1574.87 951.486C1571.28 947.894 1534.96 911.528 1493.85 905.656C1460.64 900.911 1431.96 940.197 1424.05 962.931C1367.12 934.464 1330.5 968.834 1316.66 991.568C1273.96 955.985 1217.35 986.198 1210.24 1001.99C1183.55 1061.3 1150.1 1053.04 1132.31 1056C1099.69 1061.93 1106.46 1117.64 1109.42 1147.29C1109.42 1187.62 1067.91 1172 1047.15 1159.15C1016.31 1142.55 1030.35 1112.7 1041.22 1099.85L1106.46 1040.54C1125.43 1002.59 1104.48 1006.93 1091.63 1013.85L1061.98 1040.54C988.438 1116.45 946.166 1109.33 931.505 1099.85C891.177 1073.75 910.748 1037.58 925.575 1022.75L1008.6 948.618C1046.56 910.662 1024.42 909.081 1008.6 913.035C1002.67 916.988 984.879 929.64 961.157 948.618C937.435 967.596 897.84 1013.85 869.234 1013.85C799.4 1013.85 811.905 950.595 830.685 930.826L869.234 898.208L981.914 803.32C998.52 770.108 969.065 783.551 952.261 794.424L798.067 913.035C767.183 930.826 735.902 919.263 726.017 911.025C704.538 893.127 709.908 859.12 723.936 844.833L925.575 681.743C987.252 622.438 1085.77 585.276 1085.77 585.276C1191.37 563.798 1196.39 590.645 1211.06 610.576C1211.06 610.576 1236.12 681.927 1263.62 708.43C1363.25 758.246 1401.02 703.004 1407.94 669.398L1390.04 610.576Z" fill="#47C9F2"/>
</svg>
