<svg width="1504" height="1541" viewBox="0 0 1504 1541" fill="none" xmlns="http://www.w3.org/2000/svg">
<path d="M740.327 1118.67C731.924 1095.28 744.801 1069.63 768.572 1062.39V1062.39C790.355 1055.76 813.563 1067.07 821.765 1088.31L833.754 1119.36C842.778 1142.73 830.426 1168.89 806.649 1176.78V1176.78C784.064 1184.27 759.629 1172.38 751.583 1149.99L740.327 1118.67Z" fill="#AEE637"/>
<path d="M839.167 1068.15C820.887 1038.88 834.271 1000.21 866.734 988.498V988.498C892.898 979.062 921.957 990.975 933.969 1016.06L964.613 1080.07C976.501 1104.9 966.174 1134.67 941.463 1146.81V1146.81C918.35 1158.16 890.397 1150.18 876.757 1128.34L839.167 1068.15Z" fill="#AEE637"/>
<path d="M964.59 1047.47C943.933 1023.7 949.274 987.119 975.865 970.244V970.244C999.51 955.239 1030.81 961.886 1046.32 985.205L1073.72 1026.41C1087.68 1047.41 1083.13 1075.63 1063.27 1091.18V1091.18C1043.03 1107.03 1013.91 1104.24 997.046 1084.83L964.59 1047.47Z" fill="#AEE637"/>
<path d="M1073.91 999.116C1056.2 976.504 1060.48 943.769 1083.41 926.471V926.471C1107.26 908.474 1141.37 914.558 1157.53 939.689L1171.09 960.783C1183.84 980.602 1181.76 1006.5 1166.02 1024.03L1165.51 1024.59C1161.74 1028.79 1157.26 1032.3 1152.27 1034.94V1034.94C1131.7 1045.86 1106.27 1040.45 1091.91 1022.12L1073.91 999.116Z" fill="#AEE637"/>
<path d="M293.562 317.015C756.145 -95.7512 1211.81 162.821 1381.82 343.702C1215.76 104.108 1014.83 19.6882 889.582 5.66102C602.543 -22.8056 408.219 62.9896 346.937 109.446C69.3874 296.851 0 565.109 0 675.813L174.951 782.563C326.773 678.185 420.08 519.642 447.756 453.417L293.562 317.015Z" fill="#AEE637"/>
<path d="M220.149 735.621C288.944 690.549 385.642 558.615 424.19 490.414C511.962 514.136 632.592 481.09 667.187 456.379C752.586 420.796 848.068 450.449 848.068 450.449C848.068 450.449 929.119 475.159 942.957 483.067C980.828 504.707 1000.52 596.014 1023.78 671.187C998.727 757.099 891.337 703.404 891.337 703.404C873.438 694.455 832.272 587.065 832.272 587.065C798.265 560.218 732.068 568.846 703.404 581.696C644.099 595.929 568.152 647.518 531.58 680.136L350.807 828.692L220.149 735.621Z" fill="#AEE637"/>
<path d="M750.214 1428.99C432.336 1469.32 182.858 1283.69 97.8535 1185.84C150.042 1294.96 283.677 1393.41 343.971 1428.99C495.793 1514.39 652.36 1537.72 711.665 1538.71C844.509 1548.2 980.517 1505.1 1031.91 1482.37C1126.8 1446.78 1231.58 1362.77 1272.1 1325.21C1328.44 1268.87 1375.89 1245.72 1449.76 1082.85C1480.16 1015.84 1486.79 959.491 1492.72 936.757C1521.19 811.03 1488.57 642.207 1473.74 577.959C1459.73 517.262 1439.15 469.232 1426.3 450.452L1150.53 577.959C1156.46 625.404 1230.59 824.077 1257.28 883.382C1278.63 930.827 1299.78 950.595 1307.69 954.549L1375.89 936.757C1359.28 1010.3 1278.03 1121.59 1239.48 1168.05C1101.9 1353.08 855.975 1419.11 750.214 1428.99Z" fill="#47C9F2"/>
<path d="M1013.04 610.576L1161.6 594.225C1179.39 648.589 1238.78 780.88 1274.36 866.279C1318.84 973.029 1200.93 954.548 1197.97 951.583L1197.87 951.486C1194.28 947.894 1157.96 911.528 1116.85 905.656C1083.64 900.911 1054.96 940.197 1047.05 962.931C990.118 934.464 953.499 968.834 939.661 991.568C896.961 955.985 840.348 986.198 833.24 1001.99C806.553 1061.3 773.1 1053.04 755.308 1056C722.69 1061.93 729.456 1117.64 732.421 1147.29C732.421 1187.62 690.907 1172 670.15 1159.15C639.311 1142.55 653.347 1112.7 664.22 1099.85L729.456 1040.54C748.433 1002.59 727.479 1006.93 714.629 1013.85L684.976 1040.54C611.438 1116.45 569.166 1109.33 554.505 1099.85C514.177 1073.75 533.748 1037.58 548.575 1022.75L631.602 948.618C669.557 910.662 647.416 909.081 631.602 913.035C625.671 916.988 607.879 929.64 584.157 948.618C560.435 967.596 520.84 1013.85 492.234 1013.85C422.4 1013.85 434.905 950.595 453.685 930.826L492.234 898.208L604.914 803.32C621.52 770.108 592.065 783.551 575.261 794.424L421.067 913.035C390.183 930.826 358.902 919.263 349.017 911.025C327.538 893.127 332.908 859.12 346.936 844.833L548.575 681.743C610.252 622.438 708.773 585.276 708.773 585.276C814.373 563.798 819.387 590.645 834.061 610.576C834.061 610.576 859.119 681.927 886.616 708.43C986.249 758.246 1024.02 703.004 1030.94 669.398L1013.04 610.576Z" fill="#47C9F2"/>
</svg>
